PathFileType	4	(X/Y/Z)	C:/Users/opensim2020/Desktop/walking_exp_matlab/subject03_walking11_straight_03.trc	
DataRate	CameraRate	NumFrames	NumMarkers	Units	OrigDataRate	OrigDataStartFrame	OrigNumFrames	
100.00	100.00	6	46	mm	100.00	3025	380	
Frame#	Time	LFHD			RFHD			LBHD			RBHD			C7			T10			CLAV			STRN			RBAK			LSHO			LUPA			LELB			LFRM			LWRA			LWRB			LFIN			RSHO			RUPA			RELB			RFRM			RWRA			RWRB			RFIN			LASI			RASI			LPSI			RPSI			LTHI			LKNE			LTIB			LANK			LHEE			LTOE			RTHI			RKNE			RTIB			RANK			RHEE			RTOE			*39			*40			*41			*42			*43			*44			*45			
		X1	Y1	Z1	X2	Y2	Z2	X3	Y3	Z3	X4	Y4	Z4	X5	Y5	Z5	X6	Y6	Z6	X7	Y7	Z7	X8	Y8	Z8	X9	Y9	Z9	X10	Y10	Z10	X11	Y11	Z11	X12	Y12	Z12	X13	Y13	Z13	X14	Y14	Z14	X15	Y15	Z15	X16	Y16	Z16	X17	Y17	Z17	X18	Y18	Z18	X19	Y19	Z19	X20	Y20	Z20	X21	Y21	Z21	X22	Y22	Z22	X23	Y23	Z23	X24	Y24	Z24	X25	Y25	Z25	X26	Y26	Z26	X27	Y27	Z27	X28	Y28	Z28	X29	Y29	Z29	X30	Y30	Z30	X31	Y31	Z31	X32	Y32	Z32	X33	Y33	Z33	X34	Y34	Z34	X35	Y35	Z35	X36	Y36	Z36	X37	Y37	Z37	X38	Y38	Z38	X39	Y39	Z39	X40	Y40	Z40	X41	Y41	Z41	X42	Y42	Z42	X43	Y43	Z43	X44	Y44	Z44	X45	Y45	Z45	X46	Y46	Z46	

286	2.850	1355.23352	940.91370	1614.96069	1487.64111	932.62158	1620.11023	1353.23157	816.45807	1561.79346	1483.92444	813.57990	1566.84631	1406.94934	788.65454	1410.42688	1412.93750	751.45398	1096.94067	1414.39355	911.51733	1333.84558	1409.02795	952.00916	1168.37439	1499.88037	728.00397	1236.88391	1257.99133	876.36530	1372.09424	1180.62830	908.14050	1185.07947	1168.06958	952.01721	1071.12476	1180.60742	1031.81262	970.60681	1223.89587	1099.35522	879.20209	1171.32605	1084.00232	869.58008	1188.70447	1140.52051	810.69366	1572.05042	856.49121	1356.03796	1640.49158	847.29846	1131.85364	1652.74475	859.63232	1019.61469	1654.28967	875.08075	883.51910	1620.09253	908.50098	788.71973	1660.48376	872.70441	783.03406	1652.33032	897.52539	712.59698	1294.94495	918.33966	932.73633	1533.90100	926.86353	935.52930	1353.45422	757.50250	955.13458	1501.69019	763.27966	957.94849	1268.93152	827.29230	636.13538	1309.10974	797.72766	460.60727	1311.63818	703.25513	285.72751	1358.25305	638.98755	84.68563	1395.41321	592.89063	56.79035	1380.91113	784.97522	34.35853	1585.82324	920.80432	639.40759	1549.44910	992.32794	473.98294	1555.84204	1008.44647	290.35712	1516.96948	1067.72034	78.43205	1460.44006	1038.33301	41.03796	1504.12366	1215.43726	66.49328	1403.57397	850.92487	1668.62366																		 
287	2.860	1355.59595	948.61163	1614.54114	1488.03735	940.41595	1619.62537	1353.70996	824.16010	1561.40186	1484.42395	821.40204	1566.37781	1407.66443	796.65082	1410.00342	1413.64856	759.54126	1096.49756	1414.77246	919.45648	1333.31470	1409.40259	960.07849	1167.89172	1500.68311	736.14563	1236.31799	1258.36389	883.78955	1371.38159	1181.35498	914.73932	1183.99902	1168.91663	958.41791	1069.96228	1181.40430	1038.11621	969.40521	1224.61389	1105.78174	878.02307	1172.24878	1090.12170	868.25323	1189.60437	1146.73523	809.39172	1572.50049	864.80048	1355.58154	1640.71094	855.57458	1131.43469	1652.99768	867.35840	1019.10687	1654.35840	881.94580	882.81757	1619.94360	914.58160	787.68329	1660.55640	878.87482	782.31964	1652.09741	903.06378	711.59918	1295.51587	926.00543	932.14349	1534.39697	935.04901	935.12073	1354.16980	765.66852	954.33124	1502.49744	771.41278	957.57678	1269.08423	833.95984	635.88580	1308.79468	803.21674	460.25531	1311.23938	706.63336	286.46140	1357.53174	639.61377	86.22081	1394.67468	593.59808	58.68465	1380.79309	785.12384	34.25057	1585.59106	929.98669	639.25012	1549.09094	1000.60229	473.52539	1555.29590	1015.37506	289.46109	1516.11975	1073.26294	77.25208	1460.30676	1042.92981	39.94790	1500.95081	1220.69202	64.49087	1403.97974	858.66986	1668.15759																		 
288	2.870	1356.04504	956.36298	1614.19214	1488.52881	948.28467	1619.23596	1354.17810	831.92645	1561.01587	1484.93921	829.26904	1565.93469	1408.59253	804.79791	1409.42261	1414.53601	767.79272	1095.98376	1415.11145	927.36853	1332.74988	1409.82617	968.28882	1167.46509	1501.51733	744.38495	1235.84912	1258.74353	891.33502	1370.78687	1182.10498	921.26001	1182.87891	1169.71924	964.63220	1068.71582	1182.29431	1044.15979	968.05554	1225.40686	1111.84204	876.68475	1173.16284	1095.92493	866.69623	1190.51282	1152.42712	807.79883	1573.03625	873.12811	1355.21252	1641.10022	863.73566	1130.90710	1652.94922	875.29932	1018.48480	1654.49902	889.06042	882.19781	1619.97278	920.87744	786.83551	1660.61707	885.35699	781.63953	1652.22791	909.10083	710.94226	1296.02795	933.83502	931.47101	1535.00891	943.41870	934.77045	1354.93005	773.88855	953.65753	1503.27258	779.59595	957.24933	1269.33997	840.78125	635.61169	1308.39355	809.28033	459.98306	1310.89648	710.16064	287.28235	1357.10583	640.69415	87.84024	1394.39905	593.78314	61.19455	1380.70520	785.25299	34.20986	1585.42700	939.51013	639.19000	1548.59888	1009.03802	473.10995	1554.61365	1022.02283	288.45346	1514.73755	1076.58411	75.27843	1459.43115	1045.15393	39.09448	1497.94312	1223.85168	61.20121	1404.40137	866.45154	1667.69507																		 
289	2.880	1356.50525	964.10931	1613.86560	1488.94189	956.14825	1618.86230	1354.74573	839.71606	1560.66785	1485.46692	837.06696	1565.52563	1409.36414	812.80731	1408.71619	1415.55701	776.12067	1095.20813	1415.65051	935.57935	1332.41016	1410.35339	976.54205	1167.11414	1502.36365	752.71051	1235.28516	1259.15479	898.83289	1370.07861	1182.92786	927.90387	1181.86450	1170.59753	970.51477	1067.41113	1183.03967	1049.86035	966.42645	1226.19543	1117.57410	875.08356	1174.05688	1101.23560	864.96204	1191.34473	1157.67798	805.86963	1573.61072	881.46295	1354.88538	1641.53259	872.07642	1130.51318	1653.24097	883.32806	1018.06140	1654.61829	896.25043	881.48425	1620.08276	927.42328	786.03912	1660.95996	892.11224	781.13324	1652.31860	915.18481	710.20776	1296.88220	942.03485	931.02954	1535.74109	952.08221	934.53357	1355.83154	782.05371	952.99750	1504.03210	788.04730	956.93530	1269.49438	847.78595	635.39667	1307.99475	815.46295	459.63028	1310.57275	713.85272	288.19318	1356.75806	641.80853	89.52066	1393.89722	594.47424	63.69316	1380.60669	785.36670	34.11464	1585.46606	949.17487	639.27222	1547.79407	1017.41632	472.57700	1554.04956	1027.92114	287.32443	1513.57471	1078.65527	73.80737	1458.38196	1045.75537	37.41349	1494.89490	1225.17456	56.67104	1405.04980	874.19318	1667.37720																		 
290	2.890	1356.89270	971.82886	1613.55591	1489.36877	964.02704	1618.57507	1355.31042	847.43250	1560.23193	1486.03906	845.02747	1565.17261	1410.01807	820.72583	1408.31750	1416.35852	784.56909	1094.89233	1416.17004	943.71558	1332.02222	1410.84631	984.91541	1166.78174	1503.21265	761.13550	1234.72766	1259.62500	906.53058	1369.54688	1183.79004	934.41370	1180.71179	1171.51636	976.43738	1066.02185	1183.92358	1055.40649	964.78076	1226.92847	1122.91846	873.18518	1175.01465	1106.23523	862.94629	1192.11938	1162.42993	803.63257	1574.21167	889.86096	1354.57910	1642.02893	880.42828	1130.18396	1653.67932	891.48621	1017.72009	1655.08484	903.87677	881.22119	1620.25098	934.20868	785.34509	1661.48499	899.03967	780.70459	1652.50305	921.52057	709.51190	1297.55347	950.29419	930.46619	1536.46130	960.91174	934.30634	1356.80432	790.53253	952.59515	1504.99805	796.66461	956.73016	1269.80103	854.91248	635.20160	1307.75000	821.77313	459.66299	1310.22510	717.75781	289.18835	1356.10266	642.76923	91.55628	1393.50452	595.16705	66.50150	1380.53528	785.49286	34.04057	1585.21021	958.92633	639.27521	1547.18750	1025.43286	472.03320	1553.26477	1033.14941	286.03445	1512.23523	1079.97644	72.15729	1457.28101	1045.87561	36.25029	1491.76843	1225.72705	50.62118	1405.36902	881.92938	1666.94275																		 
291	2.900	1357.24780	979.59247	1613.44373	1489.80310	971.96655	1618.51343	1355.87122	855.19287	1559.88440	1486.59778	853.01477	1564.89063	1410.73743	828.69147	1407.95276	1417.34790	793.27917	1094.34192	1416.70557	951.90594	1331.77258	1411.41931	993.32782	1166.68323	1504.00586	769.64484	1234.15173	1260.09204	914.16779	1368.92200	1184.73523	940.95874	1179.62305	1172.52649	982.28784	1064.67261	1184.74231	1060.69519	962.88177	1227.64868	1127.95459	871.07751	1175.83740	1110.81091	860.73547	1192.87976	1166.70874	801.08063	1574.91504	898.25293	1354.33899	1642.73523	888.87598	1129.89197	1654.09192	899.81940	1017.29193	1655.53638	911.58911	880.83203	1620.60974	941.27777	784.74060	1661.96765	906.34515	780.29321	1652.89917	928.16144	708.86230	1298.11182	958.62299	929.93066	1537.11633	969.87073	934.19666	1357.86853	799.06183	952.16235	1506.14966	805.40533	956.61432	1270.02490	862.24957	635.04944	1307.36206	828.70996	459.48712	1309.93848	721.86548	290.27924	1355.57690	643.97247	93.77787	1392.90125	596.13104	69.57098	1380.45056	785.62750	33.93995	1585.00659	968.27509	639.64441	1546.58826	1032.75928	471.71259	1552.30591	1038.03735	285.20557	1511.39465	1083.76624	72.18148	1457.52246	1047.51782	37.31509	1488.82617	1228.61389	46.32900	1405.89368	889.74310	1666.71753																		 
